/* XPM */
static char *_1a3d52ab04e4afd81da1e727482d5717x0vL8i7rfncEmMY[] = {
/* columns rows colors chars-per-pixel */
"32 32 6 1 ",
"  c #553A1F",
". c #4D3317",
"X c #3B2713",
"o c #311E0B",
"O c #2E1C0A",
"+ c #2E1608",
/* pixels */
"XXo+XX.Xoo+OX.XoXo+o.XXoOo..X.OX",
"XXOOX.XXXo++o oo.X+o.X XOO.Xo.Oo",
"X.OoX o.XXO+O OX.oOOX. XoOXXO.oO",
"o.OXoXOX.Xo+o.O.XOo+. oXo+oXoXoO",
"oX+XXoOX XXOoXoX.OXOo.OXO+OX.XOO",
"XX+O.OoX  X+X.Xo.oXOo.OoOOoX..Oo",
"X.++.OOoX XO..XoXoXoXXoO+oXoX.Xo",
"X.O+ oOXX X+.XXOX.XoXoO+OOXoX.Xo",
".XoOXXoXX.o+X.oOX oo.oOooOoOoXoo",
" .oOoXo.XXO+o.Oo  oX X+oXoO+oXoX",
"X XoOoX.XX+Oo.OXX.Oo .OOXo+OX.X.",
"..XoOo.XXo+ooXOX X+OX oO.X+o.XXX",
".X.X+O..XOOXOXoX.XoO.XXo..OX.XoX",
".oXoO+X.XOoXooXoXoX+ oXOX.O..Xoo",
"XoXoo+oX.OXXXo.XXoXO oo+X.o XoOo",
"XoOoO+o..o.XoX .oXoo XoOXXX .o+X",
"XooO+OX XX Xo.X XXoX.XOXo.X.XOOX",
".XoO+o. XX  XXo.oXoXX.XXo.oXoOoX",
"X.XoOXX .oX oXoXOoo.X.XOo.XOoOXo",
"X..XOXX XXo.ooXoOXo...o+.XXoOoXO",
"XX.XoX .XXoXXoXOo.oX.XoO .XX+ooo",
".XXoXX XXoOo.Xo+X.XX.oOoX.Xo+OoX",
".XOoXo.XXo+o..O+.XXXXo+oX XoO+XO",
".XOOXo..XXO+.X+O X.oXo+X .ooo+Xo",
" XoOoXX.XXoOX.+X  XoXo+X XoXoOXX",
" .o+oXo.XXooo.+..XooXX+o.oXoOOoX",
". X+OoX XXoXoXOX..oXXX+OXoXXOoX ",
"X XOOoX .oX.oX+OX.XoXoO+oOXoOoX ",
"X.Xo+X .ooX.X.O+.XXOXO++O+OXoX. ",
"o.Xo+o.XoXoX.Xo+XXoOXo+O+OooXX.X",
"oXooOO.XOXOX.XXOo.oOoXOo+OoX.XX.",
"oXoOoO..OoOX..oOX.OooXoXO+X.XXo."
};
